<?xml version="1.0" encoding="UTF-8" standalone="no"?>
<!-- Generator: Adobe Illustrator 19.0.0, SVG Export Plug-In . SVG Version: 6.00 Build 0)  -->

<svg
   xmlns:dc="http://purl.org/dc/elements/1.1/"
   xmlns:cc="http://creativecommons.org/ns#"
   xmlns:rdf="http://www.w3.org/1999/02/22-rdf-syntax-ns#"
   xmlns:svg="http://www.w3.org/2000/svg"
   xmlns="http://www.w3.org/2000/svg"
   xmlns:sodipodi="http://sodipodi.sourceforge.net/DTD/sodipodi-0.dtd"
   xmlns:inkscape="http://www.inkscape.org/namespaces/inkscape"
   version="1.1"
   id="Capa_1"
   x="0px"
   y="0px"
   viewBox="0 0 490.2 490.2"
   style="enable-background:new 0 0 490.2 490.2;"
   xml:space="preserve"
   sodipodi:docname="at.svg"
   inkscape:version="0.92.4 (5da689c313, 2019-01-14)"><metadata
   id="metadata41"><rdf:RDF><cc:Work
       rdf:about=""><dc:format>image/svg+xml</dc:format><dc:type
         rdf:resource="http://purl.org/dc/dcmitype/StillImage" /></cc:Work></rdf:RDF></metadata><defs
   id="defs39" /><sodipodi:namedview
   pagecolor="#ffffff"
   bordercolor="#666666"
   borderopacity="1"
   objecttolerance="10"
   gridtolerance="10"
   guidetolerance="10"
   inkscape:pageopacity="0"
   inkscape:pageshadow="2"
   inkscape:window-width="1366"
   inkscape:window-height="717"
   id="namedview37"
   showgrid="false"
   inkscape:zoom="0.48143614"
   inkscape:cx="-37.388137"
   inkscape:cy="247.17712"
   inkscape:window-x="0"
   inkscape:window-y="27"
   inkscape:window-maximized="1"
   inkscape:current-layer="g4" />
<g
   id="g4">
	<path
   d="M420.95,61.8C376.25,20.6,320.65,0,254.25,0c-69.8,0-129.3,23.4-178.4,70.3s-73.7,105.2-73.7,175   c0,66.9,23.4,124.4,70.1,172.6c46.9,48.2,109.9,72.3,189.2,72.3c47.8,0,94.7-9.8,140.7-29.5c15-6.4,22.3-23.6,16.2-38.7l0,0   c-6.3-15.6-24.1-22.8-39.6-16.2c-40,17.2-79.2,25.8-117.4,25.8c-60.8,0-107.9-18.5-141.3-55.6c-33.3-37-50-80.5-50-130.4   c0-54.2,17.9-99.4,53.6-135.7c35.6-36.2,79.5-54.4,131.5-54.4c47.9,0,88.4,14.9,121.4,44.7s49.5,67.3,49.5,112.5   c0,30.9-7.6,56.7-22.7,77.2c-15.1,20.6-30.8,30.8-47.1,30.8c-8.8,0-13.2-4.7-13.2-14.2c0-7.7,0.6-16.7,1.7-27.1l18.6-152.1h-64   l-4.1,14.9c-16.3-13.3-34.2-20-53.6-20c-30.8,0-57.2,12.3-79.1,36.8c-22,24.5-32.9,56.1-32.9,94.7c0,37.7,9.7,68.2,29.2,91.3   c19.5,23.2,42.9,34.7,70.3,34.7c24.5,0,45.4-10.3,62.8-30.8c13.1,19.7,32.4,29.5,57.9,29.5c37.5,0,69.9-16.3,97.2-49   c27.3-32.6,41-72,41-118.1C488.05,152.9,465.75,103,420.95,61.8z M273.55,291.9c-11.3,15.2-24.8,22.9-40.5,22.9   c-10.7,0-19.3-5.6-25.8-16.8c-6.6-11.2-9.9-25.1-9.9-41.8c0-20.6,4.6-37.2,13.8-49.8s20.6-19,34.2-19c11.8,0,22.3,4.7,31.5,14.2   s13.8,22.1,13.8,37.9C290.55,259.2,284.85,276.6,273.55,291.9z"
   id="path2"
   style="fill:#2e221c;fill-opacity:1" />
</g>
<g
   id="g6">
</g>
<g
   id="g8">
</g>
<g
   id="g10">
</g>
<g
   id="g12">
</g>
<g
   id="g14">
</g>
<g
   id="g16">
</g>
<g
   id="g18">
</g>
<g
   id="g20">
</g>
<g
   id="g22">
</g>
<g
   id="g24">
</g>
<g
   id="g26">
</g>
<g
   id="g28">
</g>
<g
   id="g30">
</g>
<g
   id="g32">
</g>
<g
   id="g34">
</g>
</svg>